<mxfile host="app.diagrams.net" modified="2023-09-13T06:18:40.670Z" agent="Mozilla/5.0 (Windows NT 10.0; Win64; x64) AppleWebKit/537.36 (KHTML, like Gecko) Chrome/114.0.0.0 YaBrowser/23.7.5.704 Yowser/2.5 Safari/537.36" etag="pz2vQpZqiRd1jxQnsnjN" version="21.7.4" type="device">
  <diagram name="Страница — 1" id="dq06K-67hCbdJ2_Q4xpK">
    <mxGraphModel dx="3465" dy="1898" grid="1" gridSize="10" guides="1" tooltips="1" connect="1" arrows="1" fold="1" page="1" pageScale="1" pageWidth="827" pageHeight="1169" math="0" shadow="0">
      <root>
        <mxCell id="0" />
        <mxCell id="1" parent="0" />
        <mxCell id="p5GCx1-yyXZPpUNSdn9N-2" value="Графичиский интерфейс просмотра и редактирования" style="shape=module;align=left;spacingLeft=20;align=center;verticalAlign=top;whiteSpace=wrap;html=1;" parent="1" vertex="1">
          <mxGeometry x="205" y="155" width="160" height="60" as="geometry" />
        </mxCell>
        <mxCell id="WEWK9B-NdjsQ_1QH8YlN-1" value="" style="edgeStyle=orthogonalEdgeStyle;rounded=0;orthogonalLoop=1;jettySize=auto;html=1;entryX=0.25;entryY=0;entryDx=0;entryDy=0;" edge="1" parent="1" source="p5GCx1-yyXZPpUNSdn9N-6" target="p5GCx1-yyXZPpUNSdn9N-99">
          <mxGeometry relative="1" as="geometry">
            <Array as="points">
              <mxPoint x="220" y="660" />
              <mxPoint x="218" y="660" />
            </Array>
          </mxGeometry>
        </mxCell>
        <mxCell id="p5GCx1-yyXZPpUNSdn9N-6" value="Создать&amp;nbsp; новую картинку 3D&amp;nbsp;" style="shape=module;align=left;spacingLeft=20;align=center;verticalAlign=top;whiteSpace=wrap;html=1;" parent="1" vertex="1">
          <mxGeometry x="130" y="580" width="160" height="60" as="geometry" />
        </mxCell>
        <mxCell id="p5GCx1-yyXZPpUNSdn9N-7" value="Редактирование картинки" style="shape=module;align=left;spacingLeft=20;align=center;verticalAlign=top;whiteSpace=wrap;html=1;" parent="1" vertex="1">
          <mxGeometry x="615" y="320" width="160" height="60" as="geometry" />
        </mxCell>
        <mxCell id="WEWK9B-NdjsQ_1QH8YlN-4" value="" style="edgeStyle=orthogonalEdgeStyle;rounded=0;orthogonalLoop=1;jettySize=auto;html=1;" edge="1" parent="1" source="p5GCx1-yyXZPpUNSdn9N-8" target="p5GCx1-yyXZPpUNSdn9N-99">
          <mxGeometry relative="1" as="geometry">
            <Array as="points">
              <mxPoint x="540" y="630" />
              <mxPoint x="540" y="630" />
            </Array>
          </mxGeometry>
        </mxCell>
        <mxCell id="p5GCx1-yyXZPpUNSdn9N-8" value="Редактировать" style="shape=module;align=left;spacingLeft=20;align=center;verticalAlign=top;whiteSpace=wrap;html=1;" parent="1" vertex="1">
          <mxGeometry x="460" y="548" width="160" height="60" as="geometry" />
        </mxCell>
        <mxCell id="p5GCx1-yyXZPpUNSdn9N-11" value="Файл" style="shape=module;align=left;spacingLeft=20;align=center;verticalAlign=top;whiteSpace=wrap;html=1;" parent="1" vertex="1">
          <mxGeometry x="260" y="880" width="160" height="60" as="geometry" />
        </mxCell>
        <mxCell id="p5GCx1-yyXZPpUNSdn9N-24" value="Уровень пользовательского интерфейса" style="text;strokeColor=none;fillColor=none;spacingLeft=4;spacingRight=4;overflow=hidden;rotatable=0;points=[[0,0.5],[1,0.5]];portConstraint=eastwest;fontSize=12;whiteSpace=wrap;html=1;" parent="1" vertex="1">
          <mxGeometry x="590" y="175" width="190" height="50" as="geometry" />
        </mxCell>
        <mxCell id="p5GCx1-yyXZPpUNSdn9N-28" value="Уровень бизнес-логики" style="text;strokeColor=none;fillColor=none;spacingLeft=4;spacingRight=4;overflow=hidden;rotatable=0;points=[[0,0.5],[1,0.5]];portConstraint=eastwest;fontSize=12;whiteSpace=wrap;html=1;" parent="1" vertex="1">
          <mxGeometry x="637" y="580" width="163" height="50" as="geometry" />
        </mxCell>
        <mxCell id="p5GCx1-yyXZPpUNSdn9N-32" value="" style="endArrow=none;dashed=1;html=1;rounded=0;" parent="1" edge="1">
          <mxGeometry width="50" height="50" relative="1" as="geometry">
            <mxPoint x="35" y="280" as="sourcePoint" />
            <mxPoint x="760" y="280" as="targetPoint" />
          </mxGeometry>
        </mxCell>
        <mxCell id="p5GCx1-yyXZPpUNSdn9N-33" value="" style="endArrow=none;dashed=1;html=1;rounded=0;" parent="1" edge="1">
          <mxGeometry width="50" height="50" relative="1" as="geometry">
            <mxPoint x="30" y="780" as="sourcePoint" />
            <mxPoint x="740" y="780" as="targetPoint" />
          </mxGeometry>
        </mxCell>
        <mxCell id="p5GCx1-yyXZPpUNSdn9N-34" value="" style="endArrow=none;dashed=1;html=1;rounded=0;" parent="1" edge="1">
          <mxGeometry width="50" height="50" relative="1" as="geometry">
            <mxPoint x="30" y="1020" as="sourcePoint" />
            <mxPoint x="790" y="1020" as="targetPoint" />
          </mxGeometry>
        </mxCell>
        <mxCell id="p5GCx1-yyXZPpUNSdn9N-35" value="Уровень работы с данными" style="text;strokeColor=none;fillColor=none;spacingLeft=4;spacingRight=4;overflow=hidden;rotatable=0;points=[[0,0.5],[1,0.5]];portConstraint=eastwest;fontSize=12;whiteSpace=wrap;html=1;" parent="1" vertex="1">
          <mxGeometry x="600" y="940" width="190" height="50" as="geometry" />
        </mxCell>
        <mxCell id="p5GCx1-yyXZPpUNSdn9N-36" value="Файловая система" style="text;strokeColor=none;fillColor=none;spacingLeft=4;spacingRight=4;overflow=hidden;rotatable=0;points=[[0,0.5],[1,0.5]];portConstraint=eastwest;fontSize=12;whiteSpace=wrap;html=1;" parent="1" vertex="1">
          <mxGeometry x="380" y="1090" width="190" height="50" as="geometry" />
        </mxCell>
        <mxCell id="p5GCx1-yyXZPpUNSdn9N-45" value="" style="ellipse;whiteSpace=wrap;html=1;align=center;aspect=fixed;fillColor=none;strokeColor=none;resizable=0;perimeter=centerPerimeter;rotatable=0;allowArrows=0;points=[];outlineConnect=1;" parent="1" vertex="1">
          <mxGeometry x="550" y="860" width="10" height="10" as="geometry" />
        </mxCell>
        <mxCell id="p5GCx1-yyXZPpUNSdn9N-46" value="" style="rounded=0;orthogonalLoop=1;jettySize=auto;html=1;endArrow=halfCircle;endFill=0;endSize=6;strokeWidth=1;sketch=0;fontSize=12;curved=1;exitX=0.5;exitY=1;exitDx=0;exitDy=0;" parent="1" edge="1">
          <mxGeometry relative="1" as="geometry">
            <mxPoint x="339.5" y="940" as="sourcePoint" />
            <mxPoint x="339.5" y="1060" as="targetPoint" />
          </mxGeometry>
        </mxCell>
        <mxCell id="p5GCx1-yyXZPpUNSdn9N-50" value="" style="ellipse;whiteSpace=wrap;html=1;align=center;aspect=fixed;fillColor=none;strokeColor=none;resizable=0;perimeter=centerPerimeter;rotatable=0;allowArrows=0;points=[];outlineConnect=1;" parent="1" vertex="1">
          <mxGeometry x="400" y="390" width="10" height="10" as="geometry" />
        </mxCell>
        <mxCell id="p5GCx1-yyXZPpUNSdn9N-73" value="3D MODEL&lt;br&gt;CONTROLLER" style="shape=module;align=left;spacingLeft=20;align=center;verticalAlign=top;whiteSpace=wrap;html=1;" parent="1" vertex="1">
          <mxGeometry x="140" y="450" width="620" height="60" as="geometry" />
        </mxCell>
        <mxCell id="p5GCx1-yyXZPpUNSdn9N-76" value="" style="ellipse;whiteSpace=wrap;html=1;align=center;aspect=fixed;fillColor=none;strokeColor=none;resizable=0;perimeter=centerPerimeter;rotatable=0;allowArrows=0;points=[];outlineConnect=1;" parent="1" vertex="1">
          <mxGeometry x="360" y="650" width="10" height="10" as="geometry" />
        </mxCell>
        <mxCell id="p5GCx1-yyXZPpUNSdn9N-82" value="" style="rounded=0;orthogonalLoop=1;jettySize=auto;html=1;endArrow=oval;endFill=0;sketch=0;sourcePerimeterSpacing=0;targetPerimeterSpacing=0;endSize=10;exitX=0.5;exitY=0;exitDx=0;exitDy=0;" parent="1" source="p5GCx1-yyXZPpUNSdn9N-6" target="p5GCx1-yyXZPpUNSdn9N-83" edge="1">
          <mxGeometry relative="1" as="geometry">
            <mxPoint x="590" y="545" as="sourcePoint" />
          </mxGeometry>
        </mxCell>
        <mxCell id="p5GCx1-yyXZPpUNSdn9N-87" value="" style="rounded=0;orthogonalLoop=1;jettySize=auto;html=1;endArrow=halfCircle;endFill=0;endSize=6;strokeWidth=1;sketch=0;" parent="1" edge="1">
          <mxGeometry relative="1" as="geometry">
            <mxPoint x="540" y="513" as="sourcePoint" />
            <mxPoint x="540" y="533" as="targetPoint" />
            <Array as="points">
              <mxPoint x="540" y="499" />
              <mxPoint x="540" y="520" />
            </Array>
          </mxGeometry>
        </mxCell>
        <mxCell id="p5GCx1-yyXZPpUNSdn9N-88" value="" style="rounded=0;orthogonalLoop=1;jettySize=auto;html=1;endArrow=oval;endFill=0;sketch=0;sourcePerimeterSpacing=0;targetPerimeterSpacing=0;endSize=10;exitX=0.5;exitY=0;exitDx=0;exitDy=0;" parent="1" edge="1" source="p5GCx1-yyXZPpUNSdn9N-8">
          <mxGeometry relative="1" as="geometry">
            <mxPoint x="540" y="533" as="sourcePoint" />
            <mxPoint x="540" y="530" as="targetPoint" />
            <Array as="points" />
          </mxGeometry>
        </mxCell>
        <mxCell id="p5GCx1-yyXZPpUNSdn9N-93" value="" style="rounded=0;orthogonalLoop=1;jettySize=auto;html=1;endArrow=halfCircle;endFill=0;endSize=6;strokeWidth=1;sketch=0;" parent="1" edge="1">
          <mxGeometry relative="1" as="geometry">
            <mxPoint x="710" y="450" as="sourcePoint" />
            <mxPoint x="710" y="417" as="targetPoint" />
          </mxGeometry>
        </mxCell>
        <mxCell id="p5GCx1-yyXZPpUNSdn9N-94" value="" style="rounded=0;orthogonalLoop=1;jettySize=auto;html=1;endArrow=oval;endFill=0;sketch=0;sourcePerimeterSpacing=0;targetPerimeterSpacing=0;endSize=10;exitX=0.595;exitY=0.971;exitDx=0;exitDy=0;exitPerimeter=0;" parent="1" source="p5GCx1-yyXZPpUNSdn9N-7" edge="1">
          <mxGeometry relative="1" as="geometry">
            <mxPoint x="710" y="420" as="targetPoint" />
          </mxGeometry>
        </mxCell>
        <mxCell id="p5GCx1-yyXZPpUNSdn9N-99" value="FILE SYSTEM&lt;br&gt;CONTROLLER" style="shape=module;align=left;spacingLeft=20;align=center;verticalAlign=top;whiteSpace=wrap;html=1;" parent="1" vertex="1">
          <mxGeometry x="80" y="670" width="550" height="60" as="geometry" />
        </mxCell>
        <mxCell id="p5GCx1-yyXZPpUNSdn9N-100" value="" style="rounded=0;orthogonalLoop=1;jettySize=auto;html=1;endArrow=halfCircle;endFill=0;endSize=6;strokeWidth=1;sketch=0;exitX=0.344;exitY=1.03;exitDx=0;exitDy=0;exitPerimeter=0;" parent="1" target="p5GCx1-yyXZPpUNSdn9N-102" edge="1">
          <mxGeometry relative="1" as="geometry">
            <mxPoint x="340" y="740" as="sourcePoint" />
          </mxGeometry>
        </mxCell>
        <mxCell id="p5GCx1-yyXZPpUNSdn9N-101" value="" style="rounded=0;orthogonalLoop=1;jettySize=auto;html=1;endArrow=oval;endFill=0;sketch=0;sourcePerimeterSpacing=0;targetPerimeterSpacing=0;endSize=10;exitX=0.5;exitY=0;exitDx=0;exitDy=0;" parent="1" source="p5GCx1-yyXZPpUNSdn9N-11" target="p5GCx1-yyXZPpUNSdn9N-102" edge="1">
          <mxGeometry relative="1" as="geometry">
            <mxPoint x="340" y="808" as="sourcePoint" />
          </mxGeometry>
        </mxCell>
        <mxCell id="p5GCx1-yyXZPpUNSdn9N-102" value="" style="ellipse;whiteSpace=wrap;html=1;align=center;aspect=fixed;fillColor=none;strokeColor=none;resizable=0;perimeter=centerPerimeter;rotatable=0;allowArrows=0;points=[];outlineConnect=1;" parent="1" vertex="1">
          <mxGeometry x="335" y="800" width="10" height="10" as="geometry" />
        </mxCell>
        <mxCell id="p5GCx1-yyXZPpUNSdn9N-105" value="" style="ellipse;whiteSpace=wrap;html=1;align=center;aspect=fixed;fillColor=none;strokeColor=none;resizable=0;perimeter=centerPerimeter;rotatable=0;allowArrows=0;points=[];outlineConnect=1;" parent="1" vertex="1">
          <mxGeometry x="535" y="800" width="10" height="10" as="geometry" />
        </mxCell>
        <mxCell id="p5GCx1-yyXZPpUNSdn9N-108" value="" style="ellipse;whiteSpace=wrap;html=1;align=center;aspect=fixed;fillColor=none;strokeColor=none;resizable=0;perimeter=centerPerimeter;rotatable=0;allowArrows=0;points=[];outlineConnect=1;" parent="1" vertex="1">
          <mxGeometry x="735" y="800" width="10" height="10" as="geometry" />
        </mxCell>
        <mxCell id="p5GCx1-yyXZPpUNSdn9N-109" value="APP&lt;br&gt;CONTROLLER" style="shape=module;align=left;spacingLeft=20;align=center;verticalAlign=top;whiteSpace=wrap;html=1;" parent="1" vertex="1">
          <mxGeometry x="90" y="330" width="480" height="60" as="geometry" />
        </mxCell>
        <mxCell id="p5GCx1-yyXZPpUNSdn9N-111" value="" style="endArrow=classic;html=1;rounded=0;exitX=0.407;exitY=1.061;exitDx=0;exitDy=0;entryX=0.5;entryY=0;entryDx=0;entryDy=0;exitPerimeter=0;" parent="1" edge="1">
          <mxGeometry width="50" height="50" relative="1" as="geometry">
            <mxPoint x="210" y="390" as="sourcePoint" />
            <mxPoint x="210" y="446" as="targetPoint" />
          </mxGeometry>
        </mxCell>
        <mxCell id="p5GCx1-yyXZPpUNSdn9N-112" value="" style="endArrow=classic;html=1;rounded=0;entryX=0.531;entryY=0;entryDx=0;entryDy=0;entryPerimeter=0;exitX=0.37;exitY=1.047;exitDx=0;exitDy=0;exitPerimeter=0;" parent="1" target="p5GCx1-yyXZPpUNSdn9N-99" edge="1" source="p5GCx1-yyXZPpUNSdn9N-73">
          <mxGeometry width="50" height="50" relative="1" as="geometry">
            <mxPoint x="474.37" y="510" as="sourcePoint" />
            <mxPoint x="320" y="660" as="targetPoint" />
          </mxGeometry>
        </mxCell>
        <mxCell id="p5GCx1-yyXZPpUNSdn9N-115" value="" style="ellipse;whiteSpace=wrap;html=1;align=center;aspect=fixed;fillColor=none;strokeColor=none;resizable=0;perimeter=centerPerimeter;rotatable=0;allowArrows=0;points=[];outlineConnect=1;" parent="1" vertex="1">
          <mxGeometry x="185" y="215" width="10" height="10" as="geometry" />
        </mxCell>
        <mxCell id="p5GCx1-yyXZPpUNSdn9N-116" value="" style="rounded=0;orthogonalLoop=1;jettySize=auto;html=1;endArrow=halfCircle;endFill=0;endSize=6;strokeWidth=1;sketch=0;" parent="1" edge="1">
          <mxGeometry relative="1" as="geometry">
            <mxPoint x="299.99999999999994" y="325" as="sourcePoint" />
            <mxPoint x="300.21" y="255" as="targetPoint" />
          </mxGeometry>
        </mxCell>
        <mxCell id="p5GCx1-yyXZPpUNSdn9N-117" value="" style="rounded=0;orthogonalLoop=1;jettySize=auto;html=1;endArrow=oval;endFill=0;sketch=0;sourcePerimeterSpacing=0;targetPerimeterSpacing=0;endSize=10;" parent="1" edge="1">
          <mxGeometry relative="1" as="geometry">
            <mxPoint x="300" y="255" as="targetPoint" />
            <mxPoint x="300" y="215" as="sourcePoint" />
          </mxGeometry>
        </mxCell>
        <mxCell id="p5GCx1-yyXZPpUNSdn9N-118" value="" style="ellipse;whiteSpace=wrap;html=1;align=center;aspect=fixed;fillColor=none;strokeColor=none;resizable=0;perimeter=centerPerimeter;rotatable=0;allowArrows=0;points=[];outlineConnect=1;" parent="1" vertex="1">
          <mxGeometry x="400" y="215" width="10" height="10" as="geometry" />
        </mxCell>
        <mxCell id="p5GCx1-yyXZPpUNSdn9N-121" value="" style="ellipse;whiteSpace=wrap;html=1;align=center;aspect=fixed;fillColor=none;strokeColor=none;resizable=0;perimeter=centerPerimeter;rotatable=0;allowArrows=0;points=[];outlineConnect=1;" parent="1" vertex="1">
          <mxGeometry x="610" y="215" width="10" height="10" as="geometry" />
        </mxCell>
        <mxCell id="WEWK9B-NdjsQ_1QH8YlN-3" value="" style="rounded=0;orthogonalLoop=1;jettySize=auto;html=1;endArrow=halfCircle;endFill=0;endSize=6;strokeWidth=1;sketch=0;exitX=0.119;exitY=1.059;exitDx=0;exitDy=0;exitPerimeter=0;" edge="1" parent="1" source="p5GCx1-yyXZPpUNSdn9N-73" target="p5GCx1-yyXZPpUNSdn9N-83">
          <mxGeometry relative="1" as="geometry">
            <mxPoint x="218" y="512" as="sourcePoint" />
            <mxPoint x="220" y="554" as="targetPoint" />
          </mxGeometry>
        </mxCell>
        <mxCell id="p5GCx1-yyXZPpUNSdn9N-83" value="" style="ellipse;whiteSpace=wrap;html=1;align=center;aspect=fixed;fillColor=none;strokeColor=none;resizable=0;perimeter=centerPerimeter;rotatable=0;allowArrows=0;points=[];outlineConnect=1;" parent="1" vertex="1">
          <mxGeometry x="205" y="548" width="10" height="10" as="geometry" />
        </mxCell>
      </root>
    </mxGraphModel>
  </diagram>
</mxfile>
